# xmcd
#
# Track frame offsets: 
#        150
#        12960
#        26431
#        40940
#        52660
#        66636
#        79265
#        90215
#        103415
#        113376
#        127502
#        144007
#        159944
#        176669
#        187131
#        198805
#        224878
#        235166
#        253385
#        271374
#        286730
#        301832
#
# Disc length: 4218 seconds
#
# Revision: 0
# Processed by: cddbd v1.5.2PL0 Copyright (c) Steve Scherf et al.
# Submitted via: ExactAudioCopyFreeDBPlugin 1.0
#
DISCID=27107816
DTITLE=Bluegrass Sound Band - June 2014 Demo
DYEAR=2014
DGENRE=Bluegrass
TTITLE0=Black Mountain Rag
TTITLE1=Alabama Jubilee
TTITLE2=Share Cropper's Son
TTITLE3=Wild Mountain Flower
TTITLE4=Whoa-a-a Mule
TTITLE5=Kentucky Girl
TTITLE6=I'm My Own Grandpa
TTITLE7=Diggy Diggy Low
TTITLE8=Train 45
TTITLE9=In The Gravel Yard
TTITLE10=Rocky Top
TTITLE11=Dueling Banjos
TTITLE12=Cool Clear Water
TTITLE13=I Just Don't Look Good Naked Anymore
TTITLE14=Ashoken Farewell
TTITLE15=Waltz Across Texas
TTITLE16=Ragtime Annie
TTITLE17=Ghost Riders In The Sky
TTITLE18=Orange Blossom
TTITLE19=Butterbean
TTITLE20=Sleepy Eyed John
TTITLE21=Why Not Confess
EXTD=
EXTT0=
EXTT1=
EXTT2=
EXTT3=
EXTT4=
EXTT5=
EXTT6=
EXTT7=
EXTT8=
EXTT9=
EXTT10=
EXTT11=
EXTT12=
EXTT13=
EXTT14=
EXTT15=
EXTT16=
EXTT17=
EXTT18=
EXTT19=
EXTT20=
EXTT21=
PLAYORDER=
